<svg xmlns="http://www.w3.org/2000/svg" width="487" height="487" viewBox="0 0 487 487">
  <g id="logo" transform="translate(120.054 -14.317)">
    <g id="Ellipse_1" data-name="Ellipse 1" transform="translate(-120.054 14.317)" fill="#fff" stroke="#707070" stroke-width="1">
      <circle cx="243.5" cy="243.5" r="243.5" stroke="none"/>
      <circle cx="243.5" cy="243.5" r="243" fill="none"/>
    </g>
    <path id="rgba_34_37_41_1_" data-name="rgba(34,37,41,1)" d="M164.678,155h42.168l.781.781H217l.781.781,18.741,1.562,28.893,5.466q55.834,13.431,98.783,39.045l-.39,1.562H8.5l.781-1.562,36.7-18.741,42.949-15.618,36.7-8.59,14.056-1.562.781-.781h5.466l.781-.781,17.18-.781Z" transform="translate(-63.251 115.436)" fill="#1c1c1c"/>
    <path id="rgba_34_37_41_1_2" data-name="rgba(34,37,41,1)" d="M125.834,244l12.494.781,11.713,3.124A59.514,59.514,0,0,1,172.3,263.132a60.21,60.21,0,0,1,11.713,18.741l2.343,7.028.781,8.2h23.817l1.171-1.171q3.748-23.583,18.351-36.311A60.21,60.21,0,0,1,249.215,247.9l11.713-3.124L273.422,244l.781.781h6.247l7.028,1.562,12.494,5.466a66.824,66.824,0,0,1,17.57,15.227,59.041,59.041,0,0,1,10.152,20.3l1.562,7.028v18.741q-4.295,20.3-16.789,32.407a59.768,59.768,0,0,1-20.3,13.275q-10.932,4.685-27.331,3.9l-11.713-2.343-10.932-4.685A61.414,61.414,0,0,1,225.4,342l-9.371-14.837-3.124-9.371-1.562-11.323H188.305l-.39,1.952-.781.781-.781,8.59-5.466,14.056a61.415,61.415,0,0,1-13.666,16.789,60.111,60.111,0,0,1-21.084,11.713L134.424,362.7H123.491l-.781-.781-8.59-.781-12.494-4.685a61.494,61.494,0,0,1-16.008-12.1q-9.6-9.917-14.056-24.989L70,313.109V294.368q4.685-24.6,21.475-37.092l14.056-8.59,9.371-3.124,10.152-.781Zm-4.295,13.275q-12.494,2.343-20.3,8.59Q86.4,276.017,82.494,296.32v14.837l.781,3.9a48.119,48.119,0,0,0,10.932,20.3,43.193,43.193,0,0,0,17.961,11.713l14.056,3.124q21.084,0,32.8-10.932a55.179,55.179,0,0,0,10.932-13.275l3.9-10.152,1.562-8.59v-7.028l-1.562-8.59a45.311,45.311,0,0,0-9.371-17.961A50.314,50.314,0,0,0,143.4,258.837l-6.247-1.562Zm141.342,0q-14.056,3.124-22.646,10.932l-9.371,10.932L225.4,291.634l-1.562,8.59v7.028l1.562,8.59a38.313,38.313,0,0,0,8.59,17.18,44.379,44.379,0,0,0,16.4,12.494l8.59,3.124,8.59.781.781.781,11.713-.781,7.809-2.343a40.045,40.045,0,0,0,14.837-9.371q10.932-9.371,14.056-26.55V296.32l-.781-3.9q-2.343-10.152-7.809-16.4A45.914,45.914,0,0,0,289.431,260.4L278.5,257.275Z" transform="translate(-76.726 95.936)" fill="#1c1c1c"/>
    <path id="Path_1" data-name="Path 1" d="M605.152,316.187,482.379,436.17l13.042,13.042L605.152,339.481,714.883,449.212l13.042-13.042L688.957,397.2V351.455H639.863Z" transform="translate(-482.054 -280.683)" fill="#1c1c1c"/>
    <path id="Path_2" data-name="Path 2" d="M709.346,560.765l-16.135-22.12v-98.5l-88.383-88.382-88.382,88.382v98.5l-18.092,22.12,40.95-11.66,35.7-3.544V465.791h58.351v79.771l34.887,3.544Z" transform="translate(-482.054 -280.683)" fill="#1c1c1c"/>
  </g>
</svg>
